CATALOG 0000000000000
FILE "Moonlight Lady (Japan) (Track 01).bin" BINARY
  TRACK 01 AUDIO
    INDEX 01 00:00:00
FILE "Moonlight Lady (Japan) (Track 02) (patched).bin" BINARY
  TRACK 02 MODE1/2352
    INDEX 00 00:00:00
    INDEX 01 00:03:00
FILE "Moonlight Lady (Japan) (Track 03).bin" BINARY
  TRACK 03 AUDIO
    INDEX 00 00:00:00
    INDEX 01 00:02:00
FILE "Moonlight Lady (Japan) (Track 04).bin" BINARY
  TRACK 04 AUDIO
    INDEX 01 00:00:00
FILE "Moonlight Lady (Japan) (Track 05).bin" BINARY
  TRACK 05 AUDIO
    INDEX 01 00:00:00
FILE "Moonlight Lady (Japan) (Track 06).bin" BINARY
  TRACK 06 AUDIO
    INDEX 01 00:00:00
FILE "Moonlight Lady (Japan) (Track 07).bin" BINARY
  TRACK 07 AUDIO
    INDEX 01 00:00:00
FILE "Moonlight Lady (Japan) (Track 08).bin" BINARY
  TRACK 08 AUDIO
    INDEX 01 00:00:00
FILE "Moonlight Lady (Japan) (Track 09).bin" BINARY
  TRACK 09 AUDIO
    INDEX 01 00:00:00
FILE "Moonlight Lady (Japan) (Track 10).bin" BINARY
  TRACK 10 AUDIO
    INDEX 01 00:00:00
FILE "Moonlight Lady (Japan) (Track 11).bin" BINARY
  TRACK 11 AUDIO
    INDEX 01 00:00:00
FILE "Moonlight Lady (Japan) (Track 12).bin" BINARY
  TRACK 12 AUDIO
    INDEX 01 00:00:00
FILE "Moonlight Lady (Japan) (Track 13).bin" BINARY
  TRACK 13 AUDIO
    INDEX 01 00:00:00
FILE "Moonlight Lady (Japan) (Track 14).bin" BINARY
  TRACK 14 AUDIO
    INDEX 01 00:00:00
FILE "Moonlight Lady (Japan) (Track 15).bin" BINARY
  TRACK 15 AUDIO
    INDEX 01 00:00:00
FILE "Moonlight Lady (Japan) (Track 16).bin" BINARY
  TRACK 16 AUDIO
    INDEX 01 00:00:00
FILE "Moonlight Lady (Japan) (Track 17).bin" BINARY
  TRACK 17 AUDIO
    INDEX 01 00:00:00
FILE "Moonlight Lady (Japan) (Track 18).bin" BINARY
  TRACK 18 AUDIO
    INDEX 01 00:00:00
FILE "Moonlight Lady (Japan) (Track 19).bin" BINARY
  TRACK 19 AUDIO
    INDEX 01 00:00:00
FILE "Moonlight Lady (Japan) (Track 20).bin" BINARY
  TRACK 20 AUDIO
    INDEX 01 00:00:00
FILE "Moonlight Lady (Japan) (Track 21).bin" BINARY
  TRACK 21 AUDIO
    INDEX 01 00:00:00
FILE "Moonlight Lady (Japan) (Track 22).bin" BINARY
  TRACK 22 AUDIO
    INDEX 01 00:00:00
FILE "Moonlight Lady (Japan) (Track 23).bin" BINARY
  TRACK 23 AUDIO
    INDEX 01 00:00:00
FILE "Moonlight Lady (Japan) (Track 24).bin" BINARY
  TRACK 24 AUDIO
    INDEX 01 00:00:00
FILE "Moonlight Lady (Japan) (Track 25).bin" BINARY
  TRACK 25 AUDIO
    INDEX 01 00:00:00
FILE "Moonlight Lady (Japan) (Track 26).bin" BINARY
  TRACK 26 AUDIO
    INDEX 01 00:00:00
FILE "Moonlight Lady (Japan) (Track 27).bin" BINARY
  TRACK 27 AUDIO
    INDEX 01 00:00:00
FILE "Moonlight Lady (Japan) (Track 28).bin" BINARY
  TRACK 28 AUDIO
    INDEX 01 00:00:00
FILE "Moonlight Lady (Japan) (Track 29).bin" BINARY
  TRACK 29 AUDIO
    INDEX 01 00:00:00
FILE "Moonlight Lady (Japan) (Track 30).bin" BINARY
  TRACK 30 AUDIO
    INDEX 01 00:00:00
FILE "Moonlight Lady (Japan) (Track 31).bin" BINARY
  TRACK 31 AUDIO
    INDEX 01 00:00:00
FILE "Moonlight Lady (Japan) (Track 32).bin" BINARY
  TRACK 32 AUDIO
    INDEX 01 00:00:00
FILE "Moonlight Lady (Japan) (Track 33).bin" BINARY
  TRACK 33 AUDIO
    INDEX 01 00:00:00
FILE "Moonlight Lady (Japan) (Track 34).bin" BINARY
  TRACK 34 AUDIO
    INDEX 01 00:00:00
FILE "Moonlight Lady (Japan) (Track 35).bin" BINARY
  TRACK 35 AUDIO
    INDEX 01 00:00:00
FILE "Moonlight Lady (Japan) (Track 36).bin" BINARY
  TRACK 36 AUDIO
    INDEX 01 00:00:00
FILE "Moonlight Lady (Japan) (Track 37).bin" BINARY
  TRACK 37 AUDIO
    INDEX 01 00:00:00
FILE "Moonlight Lady (Japan) (Track 38).bin" BINARY
  TRACK 38 AUDIO
    INDEX 01 00:00:00
FILE "Moonlight Lady (Japan) (Track 39).bin" BINARY
  TRACK 39 AUDIO
    INDEX 01 00:00:00
FILE "Moonlight Lady (Japan) (Track 40).bin" BINARY
  TRACK 40 AUDIO
    INDEX 01 00:00:00
FILE "Moonlight Lady (Japan) (Track 41).bin" BINARY
  TRACK 41 AUDIO
    INDEX 01 00:00:00
FILE "Moonlight Lady (Japan) (Track 42).bin" BINARY
  TRACK 42 AUDIO
    INDEX 01 00:00:00
FILE "Moonlight Lady (Japan) (Track 43).bin" BINARY
  TRACK 43 AUDIO
    INDEX 01 00:00:00
FILE "Moonlight Lady (Japan) (Track 44).bin" BINARY
  TRACK 44 AUDIO
    INDEX 01 00:00:00
FILE "Moonlight Lady (Japan) (Track 45).bin" BINARY
  TRACK 45 AUDIO
    INDEX 01 00:00:00
FILE "Moonlight Lady (Japan) (Track 46).bin" BINARY
  TRACK 46 AUDIO
    INDEX 01 00:00:00
FILE "Moonlight Lady (Japan) (Track 47).bin" BINARY
  TRACK 47 AUDIO
    INDEX 01 00:00:00
FILE "Moonlight Lady (Japan) (Track 48).bin" BINARY
  TRACK 48 MODE1/2352
    INDEX 00 00:00:00
    INDEX 01 00:03:00
